<svg width="64" height="65" viewBox="0 0 64 65" fill="none" xmlns="http://www.w3.org/2000/svg">
<g clip-path="url(#clip0_78_16936)">
<path d="M29.1953 4.80273L32.1953 11.8027" stroke="#9264A8" stroke-linecap="round"/>
<path d="M32.2363 3L32.2363 12" stroke="#9264A8" stroke-linecap="round"/>
<path d="M35.1787 5.23242L31.1788 12.8485" stroke="#9264A8" stroke-linecap="round"/>
<path d="M35.8806 44.678H28.6328V57.998H35.8806V44.678Z" fill="white"/>
<path d="M28.0686 52.1116H36.447C36.7908 52.1116 37.1311 52.1793 37.4487 52.3108C37.7662 52.4424 38.0548 52.6352 38.2978 52.8782C38.5409 53.1213 38.7337 53.4098 38.8652 53.7274C38.9968 54.0449 39.0645 54.3853 39.0645 54.729V64.8978H25.4512V54.729C25.4512 54.0348 25.7269 53.3691 26.2178 52.8782C26.7087 52.3873 27.3744 52.1116 28.0686 52.1116Z" fill="#9264A8"/>
<path d="M35.8816 50.7268H28.6376C28.4451 50.7268 28.2891 50.8829 28.2891 51.0754V52.4722C28.2891 52.6647 28.4451 52.8208 28.6376 52.8208H35.8816C36.0741 52.8208 36.2302 52.6647 36.2302 52.4722V51.0754C36.2302 50.8829 36.0741 50.7268 35.8816 50.7268Z" fill="#9264A8"/>
<path d="M18.2407 34.5817C18.6292 32.1885 17.0041 29.9336 14.611 29.5451C12.2178 29.1567 9.96292 30.7818 9.57446 33.1749C9.186 35.568 10.8111 37.823 13.2042 38.2114C15.5974 38.5999 17.8523 36.9748 18.2407 34.5817Z" fill="white"/>
<path d="M54.9448 34.5817C55.3333 32.1885 53.7082 29.9336 51.3151 29.5451C48.9219 29.1567 46.667 30.7818 46.2786 33.1749C45.8901 35.568 47.5152 37.823 49.9083 38.2114C52.3015 38.5999 54.5564 36.9748 54.9448 34.5817Z" fill="white"/>
<path d="M32.2577 47.8008C42.3923 47.8008 50.6081 38.9838 50.6081 28.1076C50.6081 17.2313 42.3923 8.41431 32.2577 8.41431C22.123 8.41431 13.9072 17.2313 13.9072 28.1076C13.9072 38.9838 22.123 47.8008 32.2577 47.8008Z" fill="white"/>
<g clip-path="url(#clip1_78_16936)">
<path d="M36.5312 30.7385C35.6321 30.7385 34.7846 30.9595 34.04 31.3502C32.8824 31.9575 31.5083 31.9575 30.3506 31.3502C29.6061 30.9595 28.7586 30.7385 27.8594 30.7385C24.8933 30.7385 22.5025 33.1173 22.4883 36.0833C22.4741 39.0618 24.8842 41.4807 27.8594 41.4807C28.7608 41.4807 29.6104 41.2586 30.3564 40.866C31.5092 40.2593 32.8814 40.2593 34.0342 40.866C34.7802 41.2585 35.6298 41.4807 36.5312 41.4807C39.5064 41.4807 41.9165 39.0618 41.9023 36.0833C41.8881 33.1173 39.4973 30.7385 36.5312 30.7385Z" fill="#AD8BBE"/>
<path d="M32.1957 35.4868C29.0393 35.4868 26.4805 38.0456 26.4805 41.2021C26.4805 44.3586 29.0393 45.262 32.1957 45.262C35.3522 45.262 37.911 44.3586 37.911 41.2021C37.9111 38.0456 35.3522 35.4868 32.1957 35.4868ZM35.4333 43.0758C34.7434 43.4896 33.6541 43.6995 32.1957 43.6995C30.7373 43.6995 29.6481 43.4896 28.9582 43.0758C28.5056 42.8043 28.0429 42.3694 28.0429 41.2021C28.0429 38.9122 29.9059 37.0493 32.1957 37.0493C34.4856 37.0493 36.3486 38.9122 36.3486 41.2021C36.3486 42.3694 35.8859 42.8043 35.4333 43.0758Z" fill="#F9EDFF"/>
<path d="M32.1953 39.0393C33.8133 39.0393 35.125 37.7276 35.125 36.1096C35.125 34.4916 33.8133 33.1799 32.1953 33.1799C30.5773 33.1799 29.2656 34.4916 29.2656 36.1096C29.2656 37.7276 30.5773 39.0393 32.1953 39.0393Z" fill="#FFF2B4"/>
<path d="M32.1953 36.1096C32.1953 35.0254 32.7847 34.0795 33.6602 33.5729C33.2291 33.3234 32.7291 33.1799 32.1953 33.1799C30.5773 33.1799 29.2656 34.4916 29.2656 36.1096C29.2656 37.7276 30.5773 39.0393 32.1953 39.0393C32.7291 39.0393 33.2291 38.8958 33.6602 38.6464C32.7847 38.1398 32.1953 37.1938 32.1953 36.1096Z" fill="#FFDF8E"/>
</g>
<path d="M25.3485 27.3857C25.3482 27.6971 25.2557 28.0014 25.0827 28.2602C24.9096 28.519 24.6638 28.7208 24.3761 28.84C24.0885 28.9592 23.772 28.9905 23.4666 28.93C23.1612 28.8695 22.8805 28.7198 22.6601 28.4999C22.4397 28.28 22.2893 27.9998 22.2281 27.6945C22.1668 27.3892 22.1974 27.0727 22.3159 26.7848C22.4344 26.4968 22.6355 26.2505 22.8939 26.0768C23.1523 25.9031 23.4564 25.8099 23.7677 25.8088C23.9751 25.8083 24.1806 25.8487 24.3724 25.9278C24.5641 26.0068 24.7384 26.1229 24.8853 26.2693C25.0321 26.4158 25.1486 26.5898 25.2281 26.7814C25.3076 26.973 25.3485 27.1783 25.3485 27.3857Z" fill="#9264A8"/>
<path d="M42.0272 27.3857C42.027 27.6973 41.9343 28.0018 41.761 28.2608C41.5878 28.5197 41.3416 28.7214 41.0537 28.8405C40.7657 28.9596 40.449 28.9906 40.1434 28.9296C39.8379 28.8687 39.5572 28.7185 39.337 28.4981C39.1168 28.2777 38.9668 27.997 38.9062 27.6914C38.8455 27.3858 38.8767 27.069 38.996 26.7812C39.1153 26.4934 39.3173 26.2474 39.5764 26.0743C39.8354 25.9012 40.14 25.8088 40.4516 25.8088C40.8696 25.8092 41.2703 25.9755 41.5658 26.2712C41.8612 26.5668 42.0272 26.9677 42.0272 27.3857Z" fill="#9264A8"/>
<path d="M28.8995 57.2073H25.4512V71.6168H28.8995V57.2073Z" fill="white"/>
<path d="M35.6161 71.6155H39.0645V57.206H35.6161V71.6155Z" fill="white"/>
<ellipse cx="43.6953" cy="32" rx="2.5" ry="1" fill="#F9EDFF"/>
<ellipse cx="20.6953" cy="32" rx="2.5" ry="1" fill="#F9EDFF"/>
</g>
<defs>
<clipPath id="clip0_78_16936">
<rect width="63.3623" height="63.3623" fill="white" transform="translate(0.015625 0.835938)"/>
</clipPath>
<clipPath id="clip1_78_16936">
<rect width="20" height="20" fill="white" transform="translate(22.1953 28.0002)"/>
</clipPath>
</defs>
</svg>
