<svg width="71" height="71" viewBox="0 0 71 71" fill="none" xmlns="http://www.w3.org/2000/svg">
<g clip-path="url(#clip0_1_12297)">
<circle cx="35.2568" cy="35.492" r="35.0993" fill="#F2E4F9"/>
<g clip-path="url(#clip1_1_12297)">
<path d="M39.4415 51.0704H32.1937V64.3905H39.4415V51.0704Z" fill="white"/>
<path d="M31.6305 58.5038H40.0089C40.3526 58.5038 40.693 58.5715 41.0106 58.703C41.3281 58.8346 41.6167 59.0274 41.8597 59.2704C42.1028 59.5135 42.2956 59.802 42.4271 60.1196C42.5587 60.4371 42.6264 60.7775 42.6264 61.1212V71.29H29.0131V61.1212C29.0131 60.427 29.2888 59.7613 29.7797 59.2704C30.2706 58.7795 30.9363 58.5038 31.6305 58.5038Z" fill="#9264A8"/>
<path d="M39.4435 57.1193H32.1995C32.007 57.1193 31.8509 57.2753 31.8509 57.4678V58.8647C31.8509 59.0572 32.007 59.2132 32.1995 59.2132H39.4435C39.636 59.2132 39.792 59.0572 39.792 58.8647V57.4678C39.792 57.2753 39.636 57.1193 39.4435 57.1193Z" fill="#9264A8"/>
<path d="M55.2668 41.2041C55.9264 39.0315 56.261 36.7734 56.2597 34.5029C56.2597 22.4922 47.0903 12.7208 35.8205 12.7208C24.5507 12.7208 15.3812 22.4961 15.3812 34.5029C15.3797 36.7735 15.7147 39.0317 16.3755 41.2041H55.2668Z" fill="#9264A8"/>
<path d="M21.8026 40.9741C22.1911 38.581 20.566 36.3261 18.1729 35.9376C15.7797 35.5491 13.5248 37.1742 13.1363 39.5674C12.7479 41.9605 14.373 44.2154 16.7661 44.6039C19.1592 44.9923 21.4142 43.3672 21.8026 40.9741Z" fill="white"/>
<path d="M58.5067 40.9741C58.8952 38.581 57.2701 36.3261 54.877 35.9376C52.4838 35.5491 50.2289 37.1742 49.8404 39.5674C49.452 41.9605 51.0771 44.2154 53.4702 44.6039C55.8633 44.9923 58.1183 43.3672 58.5067 40.9741Z" fill="white"/>
<path d="M35.8194 54.1934C45.9541 54.1934 54.1698 45.3764 54.1698 34.5001C54.1698 23.6239 45.9541 14.8069 35.8194 14.8069C25.6847 14.8069 17.469 23.6239 17.469 34.5001C17.469 45.3764 25.6847 54.1934 35.8194 54.1934Z" fill="white"/>
<path d="M23.4203 37.9213C23.4203 38.0975 23.163 38.2403 22.8402 38.2403C22.5174 38.2403 22.2601 38.0975 22.2601 37.9213C22.2601 37.7451 22.5174 37.6036 22.8402 37.6036C23.163 37.6036 23.4203 37.7464 23.4203 37.9213Z" fill="#9264A8"/>
<path d="M25.2367 37.9213C25.2367 38.0975 24.9795 38.2403 24.6566 38.2403C24.3338 38.2403 24.0765 38.0975 24.0765 37.9213C24.0765 37.7451 24.3338 37.6036 24.6566 37.6036C24.9795 37.6036 25.2367 37.7464 25.2367 37.9213Z" fill="#9264A8"/>
<path d="M24.3936 38.7605C24.3936 38.9367 24.1364 39.0795 23.8135 39.0795C23.4907 39.0795 23.2347 38.9367 23.2347 38.7605C23.2347 38.5843 23.492 38.4415 23.8135 38.4415C24.1351 38.4415 24.3936 38.583 24.3936 38.7605Z" fill="#9264A8"/>
<path d="M26.2247 38.7605C26.2247 38.9367 25.9674 39.0795 25.6446 39.0795C25.3217 39.0795 25.0658 38.9367 25.0658 38.7605C25.0658 38.5843 25.323 38.4415 25.6446 38.4415C25.9661 38.4415 26.2247 38.583 26.2247 38.7605Z" fill="#9264A8"/>
<path d="M27.0499 37.9213C27.0499 38.0975 26.7926 38.2403 26.4711 38.2403C26.1495 38.2403 25.891 38.0975 25.891 37.9213C25.891 37.7451 26.1482 37.6036 26.4711 37.6036C26.7939 37.6036 27.0499 37.7464 27.0499 37.9213Z" fill="#9264A8"/>
<path d="M45.7481 37.9213C45.7481 38.0975 45.4909 38.2403 45.168 38.2403C44.8452 38.2403 44.5892 38.0975 44.5892 37.9213C44.5892 37.7451 44.8465 37.6036 45.168 37.6036C45.4896 37.6036 45.7481 37.7464 45.7481 37.9213Z" fill="#9264A8"/>
<path d="M47.5635 37.9213C47.5635 38.0975 47.3063 38.2403 46.9835 38.2403C46.6606 38.2403 46.4047 38.0975 46.4047 37.9213C46.4047 37.7451 46.6619 37.6036 46.9835 37.6036C47.305 37.6036 47.5635 37.7464 47.5635 37.9213Z" fill="#9264A8"/>
<path d="M46.7256 38.7605C46.7256 38.9367 46.4684 39.0795 46.1468 39.0795C45.8253 39.0795 45.5668 38.9367 45.5668 38.7605C45.5668 38.5843 45.824 38.4415 46.1468 38.4415C46.4697 38.4415 46.7256 38.583 46.7256 38.7605Z" fill="#9264A8"/>
<path d="M48.5596 38.7605C48.5596 38.9367 48.3024 39.0795 47.9795 39.0795C47.6567 39.0795 47.4007 38.9367 47.4007 38.7605C47.4007 38.5843 47.658 38.4415 47.9795 38.4415C48.3011 38.4415 48.5596 38.583 48.5596 38.7605Z" fill="#9264A8"/>
<path d="M49.3793 37.9213C49.3793 38.0975 49.122 38.2403 48.7992 38.2403C48.4764 38.2403 48.2191 38.0975 48.2191 37.9213C48.2191 37.7451 48.4764 37.6036 48.7992 37.6036C49.122 37.6036 49.3793 37.7464 49.3793 37.9213Z" fill="#9264A8"/>
<path d="M35.9353 40.7873C33.6476 40.7873 31.3268 40.115 28.9731 38.7705C28.8705 38.6944 28.7994 38.5833 28.7732 38.4583C28.747 38.3333 28.7675 38.203 28.8309 38.0921C28.8943 37.9812 28.9961 37.8974 29.1171 37.8565C29.2381 37.8156 29.3699 37.8205 29.4876 37.8702C33.8941 40.3924 38.0306 40.395 42.1336 37.8792C42.1921 37.8407 42.2577 37.8143 42.3266 37.8017C42.3954 37.789 42.4661 37.7904 42.5345 37.8056C42.6028 37.8208 42.6674 37.8497 42.7244 37.8903C42.7813 37.931 42.8295 37.9828 42.8661 38.0425C42.9027 38.1022 42.9269 38.1686 42.9373 38.2379C42.9477 38.3071 42.944 38.3777 42.9266 38.4455C42.9091 38.5133 42.8782 38.5769 42.8356 38.6325C42.7931 38.6881 42.7398 38.7346 42.679 38.7692C40.4898 40.112 38.2287 40.7873 35.9353 40.7873Z" fill="#9264A8"/>
<path d="M35.953 12.7193C34.3018 12.5701 34.8361 10.4344 35.3384 9.24622C34.2609 9.33961 33.2338 9.7446 32.3825 10.4118C31.5311 11.0789 30.8924 11.9795 30.5441 13.0035C30.1959 14.0275 30.1532 15.1307 30.4213 16.1786C30.6893 17.2264 31.2566 18.1736 32.0538 18.9046C32.851 19.6355 33.8437 20.1187 34.9109 20.2951C35.978 20.4715 37.0734 20.3335 38.0634 19.8979C39.0534 19.4624 39.8953 18.7481 40.4863 17.8423C41.0773 16.9364 41.4932 14.7089 41.0493 13.4432C39.5864 12.9384 37.7776 12.7193 35.953 12.7193Z" fill="#9264A8"/>
<path d="M28.9094 33.7782C28.9091 34.0896 28.8166 34.3938 28.6436 34.6527C28.4705 34.9115 28.2247 35.1133 27.937 35.2325C27.6494 35.3517 27.3329 35.383 27.0275 35.3225C26.7221 35.2619 26.4414 35.1123 26.221 34.8924C26.0006 34.6725 25.8503 34.3922 25.789 34.087C25.7277 33.7817 25.7583 33.4651 25.8768 33.1772C25.9953 32.8893 26.1964 32.6429 26.4548 32.4692C26.7132 32.2956 27.0173 32.2023 27.3286 32.2013C27.536 32.2008 27.7415 32.2412 27.9333 32.3202C28.125 32.3992 28.2993 32.5153 28.4462 32.6618C28.593 32.8083 28.7095 32.9823 28.789 33.1739C28.8685 33.3654 28.9094 33.5708 28.9094 33.7782Z" fill="#9264A8"/>
<path d="M45.5891 33.7782C45.5888 34.0898 45.4962 34.3943 45.3229 34.6532C45.1496 34.9121 44.9035 35.1139 44.6155 35.233C44.3276 35.352 44.0109 35.383 43.7053 35.3221C43.3997 35.2611 43.1191 35.111 42.8989 34.8906C42.6787 34.6702 42.5287 34.3894 42.468 34.0838C42.4073 33.7782 42.4386 33.4615 42.5579 33.1736C42.6772 32.8858 42.8792 32.6398 43.1382 32.4667C43.3973 32.2937 43.7019 32.2013 44.0135 32.2013C44.4315 32.2016 44.8322 32.3679 45.1277 32.6636C45.4231 32.9593 45.5891 33.3602 45.5891 33.7782Z" fill="#9264A8"/>
<path d="M32.4604 63.5997H29.0121V78.0092H32.4604V63.5997Z" fill="white"/>
<path d="M39.179 78.0079H42.6273V63.5985H39.179V78.0079Z" fill="white"/>
</g>
</g>
<defs>
<clipPath id="clip0_1_12297">
<rect x="0.157585" y="0.3927" width="70.1985" height="70.1985" rx="35.0993" fill="white"/>
</clipPath>
<clipPath id="clip1_1_12297">
<rect width="63.3623" height="63.3623" fill="white" transform="translate(3.57751 7.22864)"/>
</clipPath>
</defs>
</svg>
