<svg width="64" height="69" viewBox="0 0 64 69" fill="none" xmlns="http://www.w3.org/2000/svg">
<g clip-path="url(#clip0_78_17181)">
<path d="M21.1556 71.8296H17.6738V68.9485C17.6738 61.2312 22.4483 55.6233 29.026 55.6233V59.1051C24.3956 59.1051 21.1556 63.1528 21.1556 68.9485V71.8296Z" fill="#66AF59"/>
<path d="M46.818 71.8296H43.3362V68.9485C43.3362 63.1528 40.1001 59.1051 35.4658 59.1051V55.6233C42.0435 55.6233 46.818 61.2273 46.818 68.9485V71.8296Z" fill="#66AF59"/>
<path d="M38.9442 58.4089V70.6897H25.6113V58.4089C25.6113 56.8655 27.8519 55.6191 29.3928 55.6191H35.1666C36.7075 55.6217 38.9442 56.8681 38.9442 58.4089Z" fill="#66AF59"/>
<path d="M32.2789 59.8556C32.2789 59.8556 28.6543 58.2337 28.6543 56.2323V49.207H35.9021V56.2323C35.9034 58.2337 32.2789 59.8556 32.2789 59.8556Z" fill="white"/>
<path d="M32.2833 45.3942C27.0844 45.3942 22.3422 44.0449 18.9311 41.5947C15.1406 38.8718 13.1367 35.0105 13.1367 30.429V22.7851C13.1367 13.3957 21.5473 6.04883 32.2833 6.04883C43.0194 6.04883 51.4248 13.4008 51.4248 22.7851V30.429C51.4248 35.0105 49.4221 38.8718 45.6368 41.5947C42.2245 44.0475 37.4822 45.3942 32.2833 45.3942Z" fill="#66AF59"/>
<path d="M18.8055 35.5176C19.1238 33.5392 17.778 31.6773 15.7995 31.3589C13.8211 31.0406 11.9591 32.3864 11.6408 34.3649C11.3225 36.3434 12.6683 38.2053 14.6468 38.5236C16.6253 38.8419 18.4872 37.4961 18.8055 35.5176Z" fill="white"/>
<path d="M52.8449 36.3272C53.6118 34.4758 52.7326 32.3533 50.8812 31.5864C49.0299 30.8196 46.9074 31.6987 46.1405 33.5501C45.3736 35.4015 46.2528 37.524 48.1042 38.2909C49.9555 39.0577 52.0781 38.1786 52.8449 36.3272Z" fill="white"/>
<path d="M32.2804 52.7489C22.8988 52.7489 15.2227 47.5397 15.2227 38.158V29.642C15.2227 20.2604 22.8988 13.0781 32.2804 13.0781C41.6621 13.073 49.3395 20.2526 49.3395 29.642V38.1632C49.3395 47.5397 41.6621 52.7489 32.2804 52.7489Z" fill="white"/>
<path d="M25.0141 30.9565C25.0141 30.2447 24.4371 29.6677 23.7253 29.6677C23.0135 29.6677 22.4365 30.2447 22.4365 30.9565V31.9983C22.4365 32.7101 23.0135 33.2871 23.7253 33.2871C24.4371 33.2871 25.0141 32.7101 25.0141 31.9983V30.9565Z" fill="#66AF59"/>
<path d="M40.838 33.2861C40.4974 33.2844 40.1712 33.1484 39.9303 32.9075C39.6895 32.6667 39.5534 32.3405 39.5518 31.9999V30.9581C39.5534 30.6175 39.6895 30.2913 39.9303 30.0505C40.1712 29.8096 40.4974 29.6736 40.838 29.6719C41.1786 29.6736 41.5048 29.8096 41.7456 30.0505C41.9864 30.2913 42.1225 30.6175 42.1242 30.9581V31.9999C42.1225 32.3405 41.9864 32.6667 41.7456 32.9075C41.5048 33.1484 41.1786 33.2844 40.838 33.2861Z" fill="#66AF59"/>
<path d="M49.3061 18.4606C48.9615 18.4823 48.6145 18.4932 48.2672 18.4932H30.6897C29.5842 18.4932 28.4896 18.384 27.4682 18.1717C26.4469 17.9594 25.5188 17.6483 24.7371 17.256C23.9554 16.8638 23.3353 16.3981 22.9123 15.8856C22.4892 15.3731 22.2715 14.8238 22.2715 14.2691C22.2715 13.7144 22.4892 13.1651 22.9123 12.6526C23.3353 12.1401 23.9554 11.6744 24.7371 11.2821C25.5188 10.8899 26.4469 10.5788 27.4682 10.3665C28.4896 10.1542 29.5842 10.0449 30.6897 10.0449H41.8924C46.2841 11.9497 49.1678 14.96 49.3061 18.4606Z" fill="#66AF59"/>
<path d="M36.142 13.4242H45.9952C46.8726 13.423 47.7133 13.2446 48.3337 12.9281C48.9542 12.6117 49.3038 12.1828 49.3062 11.7352C49.3044 11.2874 48.955 10.8582 48.3345 10.5414C47.7141 10.2247 46.873 10.0462 45.9952 10.0449H36.142C35.265 10.0463 34.4247 10.2247 33.8045 10.541C33.1844 10.8574 32.8348 11.286 32.832 11.7334C32.8336 12.1812 33.1826 12.6105 33.8029 12.9273C34.4232 13.2442 35.2642 13.4228 36.142 13.4242Z" fill="#66AF59"/>
<path d="M49.2785 13.4238H34.127C31.3121 13.4238 29.0303 14.5584 29.0303 15.958V15.9586C29.0303 17.3582 31.3121 18.4928 34.127 18.4928H49.2785C52.0933 18.4928 54.3752 17.3582 54.3752 15.9586V15.958C54.3752 14.5584 52.0933 13.4238 49.2785 13.4238Z" fill="#66AF59"/>
<path d="M32.5473 42.6778C30.2595 42.6778 27.9388 42.0056 25.585 40.661C25.4824 40.5849 25.4113 40.4738 25.3851 40.3488C25.3589 40.2238 25.3795 40.0935 25.4428 39.9826C25.5062 39.8717 25.608 39.7879 25.729 39.747C25.85 39.7061 25.9818 39.711 26.0995 39.7607C30.5061 42.2829 34.6425 42.2855 38.7456 39.7697C38.804 39.7312 38.8697 39.7048 38.9385 39.6922C39.0074 39.6795 39.0781 39.6809 39.1464 39.6961C39.2148 39.7113 39.2793 39.7402 39.3363 39.7808C39.3933 39.8215 39.4415 39.8733 39.4781 39.933C39.5146 39.9927 39.5388 40.0591 39.5492 40.1284C39.5596 40.1976 39.556 40.2682 39.5385 40.336C39.521 40.4038 39.4901 40.4674 39.4476 40.523C39.4051 40.5786 39.3518 40.6251 39.2909 40.6597C37.1018 42.0026 34.8406 42.6778 32.5473 42.6778Z" fill="#66AF59"/>
</g>
<defs>
<clipPath id="clip0_78_17181">
<rect width="63.3623" height="63.3623" fill="white" transform="translate(0.616211 0.833984)"/>
</clipPath>
</defs>
</svg>
