<svg width="65" height="65" viewBox="0 0 65 65" fill="none" xmlns="http://www.w3.org/2000/svg">
<g clip-path="url(#clip0_78_17024)">
<path d="M36.3746 50.7369L29.1859 50.7266C28.2857 50.8861 27.4701 51.3592 26.8824 52.0627C26.2946 52.7661 25.9722 53.6551 25.9717 54.5736V67.0113H39.521V54.5736C39.5205 53.6668 39.2064 52.7882 38.6325 52.0883C38.0586 51.3884 37.2604 50.9107 36.3746 50.7369Z" fill="#7BB2E5"/>
<path d="M32.7468 43.2266H32.7455C30.7541 43.2266 29.1396 44.8488 29.1396 46.8498V50.7934C29.1396 52.7944 30.7541 54.4166 32.7455 54.4166H32.7468C34.7383 54.4166 36.3527 52.7944 36.3527 50.7934V46.8498C36.3527 44.8488 34.7383 43.2266 32.7468 43.2266Z" fill="white"/>
<path d="M46.5968 38.2706C54.2461 30.5844 54.2461 18.1226 46.5968 10.4365C38.9475 2.7503 26.5455 2.7503 18.8962 10.4365C11.2469 18.1226 11.2469 30.5844 18.8962 38.2706C26.5455 45.9567 38.9475 45.9567 46.5968 38.2706Z" fill="#7BB2E5"/>
<path d="M24.3093 47.3929C26.5993 45.0919 26.5993 41.3612 24.3093 39.0602C22.0193 36.7592 18.3065 36.7592 16.0165 39.0602C13.7265 41.3612 13.7265 45.0919 16.0165 47.3929C18.3065 49.694 22.0193 49.694 24.3093 47.3929Z" fill="#7BB2E5"/>
<path d="M15.3444 47.8596C15.3444 49.4223 14.7266 50.921 13.6269 52.026C12.5272 53.131 11.0357 53.7518 9.48053 53.7518C4.77764 53.7518 1.03223 47.8596 1.03223 47.8596C1.03223 47.8596 4.45635 41.9688 9.48053 41.9688C11.0355 41.9687 12.5268 42.5894 13.6265 43.6941C14.7261 44.7988 15.3441 46.2971 15.3444 47.8596Z" fill="#7BB2E5"/>
<path d="M50.2981 45.4474C51.5202 42.4338 50.0796 38.9954 47.0805 37.7674C44.0814 36.5394 40.6595 37.9869 39.4374 41.0005C38.2153 44.0141 39.6559 47.4525 42.655 48.6805C45.6541 49.9084 49.076 48.4609 50.2981 45.4474Z" fill="#7BB2E5"/>
<path d="M49.6865 47.8596C49.6865 49.4223 50.3043 50.921 51.404 52.026C52.5037 53.131 53.9952 53.7518 55.5504 53.7518C60.2533 53.7518 63.9987 47.8596 63.9987 47.8596C63.9987 47.8596 60.5746 41.9688 55.5504 41.9688C53.9954 41.9687 52.5041 42.5894 51.4045 43.6941C50.3048 44.7988 49.6869 46.2971 49.6865 47.8596Z" fill="#7BB2E5"/>
<path d="M19.2329 36.1036C19.9821 34.2496 19.0937 32.1363 17.2485 31.3834C15.4034 30.6306 13.3002 31.5233 12.551 33.3773C11.8017 35.2314 12.6901 37.3447 14.5353 38.0975C16.3805 38.8504 18.4836 37.9577 19.2329 36.1036Z" fill="white"/>
<path d="M52.5833 35.5593C53.0353 33.6105 51.8295 31.6624 49.89 31.2082C47.9505 30.754 46.0118 31.9656 45.5597 33.9144C45.1077 35.8633 46.3135 37.8113 48.253 38.2656C50.1925 38.7198 52.1312 37.5082 52.5833 35.5593Z" fill="white"/>
<path d="M15.0859 29.2884C15.1899 33.9255 17.0962 38.3376 20.3968 41.5802C23.6974 44.8228 28.13 46.6384 32.7461 46.6384C37.3622 46.6384 41.7948 44.8228 45.0954 41.5802C48.396 38.3376 50.3023 33.9255 50.4063 29.2884C39.4004 19.719 27.627 19.719 15.0859 29.2884Z" fill="white"/>
<path d="M32.7457 11.541C28.0607 11.541 23.5677 13.4111 20.2549 16.7398C16.9421 20.0685 15.0811 24.5833 15.0811 29.2908H39.521L41.0084 26.0225L42.4088 29.2869H50.4078C50.4068 24.5805 48.5456 20.0672 45.2335 16.7393C41.9214 13.4115 37.4295 11.5417 32.7457 11.541Z" fill="#7BB2E5"/>
<path d="M50.5784 29.4604H42.2875L41.0074 26.4506L39.6365 29.4604H14.9111V29.2867C14.9111 19.406 22.9114 11.3672 32.7447 11.3672C42.5781 11.3672 50.5784 19.406 50.5784 29.2867V29.4604ZM42.5205 29.1131H50.2315C50.138 19.5038 42.3297 11.7158 32.7447 11.7158C23.1598 11.7158 15.3515 19.5038 15.2593 29.1131H39.4087L41.0074 25.594L42.5205 29.1131Z" fill="#7BB2E5"/>
<path d="M24.4849 39.0834C26.3788 39.0834 27.9141 38.412 27.9141 37.5837C27.9141 36.7554 26.3788 36.084 24.4849 36.084C22.591 36.084 21.0557 36.7554 21.0557 37.5837C21.0557 38.412 22.591 39.0834 24.4849 39.0834Z" fill="#7BB2E5"/>
<path d="M41.0074 39.0834C42.9013 39.0834 44.4366 38.412 44.4366 37.5837C44.4366 36.7554 42.9013 36.084 41.0074 36.084C39.1134 36.084 37.5781 36.7554 37.5781 37.5837C37.5781 38.412 39.1134 39.0834 41.0074 39.0834Z" fill="#7BB2E5"/>
<path d="M27.1909 34.1778C27.053 34.1778 26.9208 34.1228 26.8234 34.0248C26.7259 33.9269 26.6712 33.7941 26.6712 33.6556C26.6577 33.1097 26.4324 32.5908 26.0434 32.2095C25.6545 31.8282 25.1326 31.6148 24.5892 31.6148C24.0458 31.6148 23.5239 31.8282 23.1349 32.2095C22.7459 32.5908 22.5206 33.1097 22.5072 33.6556C22.5072 33.7941 22.4524 33.9269 22.355 34.0248C22.2575 34.1228 22.1253 34.1778 21.9875 34.1778C21.8496 34.1778 21.7175 34.1228 21.62 34.0248C21.5225 33.9269 21.4678 33.7941 21.4678 33.6556C21.4843 32.8348 21.8204 32.0531 22.404 31.4785C22.9876 30.9039 23.7721 30.582 24.5892 30.582C25.4062 30.582 26.1907 30.9039 26.7743 31.4785C27.3579 32.0531 27.694 32.8348 27.7106 33.6556C27.7106 33.7941 27.6558 33.9269 27.5583 34.0248C27.4609 34.1228 27.3287 34.1778 27.1909 34.1778Z" fill="#7BB2E5"/>
<path d="M43.5053 34.1778C43.3675 34.1778 43.2353 34.1228 43.1378 34.0248C43.0404 33.9269 42.9856 33.7941 42.9856 33.6556C42.9721 33.1097 42.7469 32.5908 42.3579 32.2095C41.9689 31.8282 41.447 31.6148 40.9036 31.6148C40.3602 31.6148 39.8383 31.8282 39.4493 32.2095C39.0604 32.5908 38.8351 33.1097 38.8216 33.6556C38.8216 33.7941 38.7669 33.9269 38.6694 34.0248C38.5719 34.1228 38.4398 34.1778 38.3019 34.1778C38.1641 34.1778 38.0319 34.1228 37.9344 34.0248C37.837 33.9269 37.7822 33.7941 37.7822 33.6556C37.7988 32.8348 38.1349 32.0531 38.7185 31.4785C39.302 30.9039 40.0866 30.582 40.9036 30.582C41.7207 30.582 42.5052 30.9039 43.0888 31.4785C43.6723 32.0531 44.0085 32.8348 44.025 33.6556C44.025 33.7941 43.9703 33.9269 43.8728 34.0248C43.7753 34.1228 43.6431 34.1778 43.5053 34.1778Z" fill="#7BB2E5"/>
<path d="M35.5044 37.7363C35.5044 39.0045 34.2704 40.0335 32.7472 40.0335C31.2239 40.0335 29.9912 39.0045 29.9912 37.7363C29.9912 36.4681 35.5044 36.4681 35.5044 37.7363Z" fill="#7BB2E5"/>
<path d="M39.5711 59.1641H36.5732V82.0008H39.5711V59.1641Z" fill="white"/>
<path d="M36.248 54.3467L36.3082 59.197L39.571 59.1649L39.5109 54.3184C39.4959 53.8913 39.3155 53.487 39.0083 53.1915C38.701 52.896 38.2911 52.7327 37.8658 52.7364C37.4405 52.7401 37.0334 52.9104 36.7312 53.2112C36.4291 53.512 36.2557 53.9194 36.248 54.3467Z" fill="#7BB2E5"/>
<path d="M25.9269 82.0039H28.9248L28.9248 59.1671H25.9269L25.9269 82.0039Z" fill="white"/>
<path d="M29.2495 54.3467L29.1906 59.197L25.9277 59.1649L25.9866 54.3184C26.0016 53.8913 26.182 53.487 26.4892 53.1915C26.7965 52.896 27.2064 52.7327 27.6317 52.7364C28.0571 52.7401 28.4641 52.9104 28.7663 53.2112C29.0684 53.512 29.2418 53.9194 29.2495 54.3467Z" fill="#7BB2E5"/>
</g>
<defs>
<clipPath id="clip0_78_17024">
<rect width="63.3623" height="63.3623" fill="white" transform="translate(0.81543 0.833984)"/>
</clipPath>
</defs>
</svg>
