<svg width="64" height="65" viewBox="0 0 64 65" fill="none" xmlns="http://www.w3.org/2000/svg">
<g clip-path="url(#clip0_78_16982)">
<path d="M36.0789 44.6777H28.8311V57.9978H36.0789V44.6777Z" fill="white"/>
<path d="M28.2669 52.1111H36.6453C36.989 52.1111 37.3294 52.1788 37.6469 52.3103C37.9645 52.4419 38.253 52.6347 38.4961 52.8777C38.7391 53.1208 38.9319 53.4093 39.0635 53.7269C39.195 54.0444 39.2627 54.3848 39.2627 54.7285V64.8973H25.6494V54.7285C25.6494 54.0343 25.9252 53.3686 26.416 52.8777C26.9069 52.3868 27.5727 52.1111 28.2669 52.1111Z" fill="#F2BB4F"/>
<path d="M36.0798 50.7266H28.8359C28.6434 50.7266 28.4873 50.8826 28.4873 51.0751V52.472C28.4873 52.6645 28.6434 52.8205 28.8359 52.8205H36.0798C36.2723 52.8205 36.4284 52.6645 36.4284 52.472V51.0751C36.4284 50.8826 36.2723 50.7266 36.0798 50.7266Z" fill="#F2BB4F"/>
<path d="M51.9031 34.8114C52.5627 32.6388 52.8973 30.3807 52.8961 28.1102C52.8961 16.0995 43.7267 6.32812 32.4568 6.32812C21.187 6.32812 12.0176 16.1034 12.0176 28.1102C12.0161 30.3808 12.3511 32.639 13.0118 34.8114H51.9031Z" fill="#F2BB4F"/>
<path d="M18.439 34.5814C18.8274 32.1883 17.2023 29.9334 14.8092 29.5449C12.4161 29.1564 10.1612 30.7815 9.7727 33.1747C9.38424 35.5678 11.0093 37.8227 13.4025 38.2112C15.7956 38.5996 18.0505 36.9745 18.439 34.5814Z" fill="white"/>
<path d="M55.1431 34.5814C55.5315 32.1883 53.9064 29.9334 51.5133 29.5449C49.1202 29.1564 46.8653 30.7815 46.4768 33.1747C46.0883 35.5678 47.7135 37.8227 50.1066 38.2112C52.4997 38.5996 54.7546 36.9745 55.1431 34.5814Z" fill="white"/>
<path d="M32.4559 47.8008C42.5906 47.8008 50.8063 38.9838 50.8063 28.1076C50.8063 17.2313 42.5906 8.41431 32.4559 8.41431C22.3212 8.41431 14.1055 17.2313 14.1055 28.1076C14.1055 38.9838 22.3212 47.8008 32.4559 47.8008Z" fill="white"/>
<path d="M20.0576 31.5286C20.0576 31.7048 19.8004 31.8476 19.4775 31.8476C19.1547 31.8476 18.8975 31.7048 18.8975 31.5286C18.8975 31.3524 19.1547 31.2109 19.4775 31.2109C19.8004 31.2109 20.0576 31.3537 20.0576 31.5286Z" fill="#F2BB4F"/>
<path d="M21.8721 31.5286C21.8721 31.7048 21.6148 31.8476 21.292 31.8476C20.9692 31.8476 20.7119 31.7048 20.7119 31.5286C20.7119 31.3524 20.9692 31.2109 21.292 31.2109C21.6148 31.2109 21.8721 31.3537 21.8721 31.5286Z" fill="#F2BB4F"/>
<path d="M21.0309 32.3678C21.0309 32.544 20.7737 32.6868 20.4509 32.6868C20.128 32.6868 19.8721 32.544 19.8721 32.3678C19.8721 32.1916 20.1293 32.0488 20.4509 32.0488C20.7724 32.0488 21.0309 32.1903 21.0309 32.3678Z" fill="#F2BB4F"/>
<path d="M22.861 32.3678C22.861 32.544 22.6038 32.6868 22.2809 32.6868C21.9581 32.6868 21.7021 32.544 21.7021 32.3678C21.7021 32.1916 21.9594 32.0488 22.2809 32.0488C22.6025 32.0488 22.861 32.1903 22.861 32.3678Z" fill="#F2BB4F"/>
<path d="M23.6862 31.5286C23.6862 31.7048 23.429 31.8476 23.1074 31.8476C22.7859 31.8476 22.5273 31.7048 22.5273 31.5286C22.5273 31.3524 22.7846 31.2109 23.1074 31.2109C23.4303 31.2109 23.6862 31.3537 23.6862 31.5286Z" fill="#F2BB4F"/>
<path d="M42.3845 31.5286C42.3845 31.7048 42.1272 31.8476 41.8044 31.8476C41.4815 31.8476 41.2256 31.7048 41.2256 31.5286C41.2256 31.3524 41.4828 31.2109 41.8044 31.2109C42.1259 31.2109 42.3845 31.3537 42.3845 31.5286Z" fill="#F2BB4F"/>
<path d="M44.1989 31.5286C44.1989 31.7048 43.9417 31.8476 43.6188 31.8476C43.296 31.8476 43.04 31.7048 43.04 31.5286C43.04 31.3524 43.2973 31.2109 43.6188 31.2109C43.9404 31.2109 44.1989 31.3537 44.1989 31.5286Z" fill="#F2BB4F"/>
<path d="M43.361 32.3678C43.361 32.544 43.1038 32.6868 42.7822 32.6868C42.4607 32.6868 42.2021 32.544 42.2021 32.3678C42.2021 32.1916 42.4594 32.0488 42.7822 32.0488C43.1051 32.0488 43.361 32.1903 43.361 32.3678Z" fill="#F2BB4F"/>
<path d="M45.197 32.3678C45.197 32.544 44.9397 32.6868 44.6169 32.6868C44.294 32.6868 44.0381 32.544 44.0381 32.3678C44.0381 32.1916 44.2953 32.0488 44.6169 32.0488C44.9384 32.0488 45.197 32.1903 45.197 32.3678Z" fill="#F2BB4F"/>
<path d="M46.0166 31.5286C46.0166 31.7048 45.7594 31.8476 45.4365 31.8476C45.1137 31.8476 44.8564 31.7048 44.8564 31.5286C44.8564 31.3524 45.1137 31.2109 45.4365 31.2109C45.7594 31.2109 46.0166 31.3537 46.0166 31.5286Z" fill="#F2BB4F"/>
<path d="M32.5717 34.3946C30.284 34.3946 27.9632 33.7223 25.6094 32.3778C25.5069 32.3017 25.4357 32.1906 25.4095 32.0656C25.3833 31.9406 25.4039 31.8103 25.4672 31.6994C25.5306 31.5885 25.6324 31.5047 25.7534 31.4638C25.8745 31.4229 26.0063 31.4278 26.1239 31.4775C30.5305 33.9997 34.667 34.0023 38.77 31.4865C38.8285 31.448 38.8941 31.4216 38.9629 31.409C39.0318 31.3963 39.1025 31.3977 39.1708 31.4129C39.2392 31.4281 39.3037 31.457 39.3607 31.4976C39.4177 31.5383 39.4659 31.5901 39.5025 31.6498C39.5391 31.7095 39.5633 31.7759 39.5736 31.8452C39.584 31.9144 39.5804 31.985 39.5629 32.0528C39.5455 32.1206 39.5145 32.1842 39.472 32.2398C39.4295 32.2954 39.3762 32.3419 39.3153 32.3765C37.1262 33.7193 34.865 34.3946 32.5717 34.3946Z" fill="#F2BB4F"/>
<path d="M32.5893 6.32659C30.9381 6.17744 31.4724 4.04171 31.9748 2.85352C30.8972 2.94691 29.8701 3.3519 29.0188 4.01907C28.1675 4.68625 27.5288 5.58677 27.1805 6.61077C26.8323 7.63478 26.7896 8.738 27.0576 9.78586C27.3257 10.8337 27.8929 11.7809 28.6902 12.5119C29.4874 13.2428 30.4801 13.726 31.5472 13.9024C32.6143 14.0788 33.7097 13.9408 34.6998 13.5052C35.6898 13.0697 36.5317 12.3554 37.1227 11.4496C37.7137 10.5437 38.1295 8.31623 37.6857 7.05051C36.2227 6.54568 34.414 6.32659 32.5893 6.32659Z" fill="#F2BB4F"/>
<path d="M25.5467 27.3855C25.5465 27.6969 25.454 28.0011 25.2809 28.26C25.1079 28.5188 24.862 28.7206 24.5744 28.8398C24.2867 28.959 23.9702 28.9903 23.6648 28.9298C23.3594 28.8692 23.0788 28.7196 22.8584 28.4997C22.6379 28.2798 22.4876 27.9995 22.4263 27.6943C22.365 27.389 22.3956 27.0724 22.5141 26.7845C22.6326 26.4966 22.8337 26.2502 23.0922 26.0765C23.3506 25.9029 23.6546 25.8096 23.966 25.8086C24.1734 25.8081 24.3789 25.8485 24.5706 25.9275C24.7624 26.0065 24.9367 26.1226 25.0835 26.2691C25.2303 26.4156 25.3468 26.5896 25.4263 26.7812C25.5058 26.9727 25.5467 27.1781 25.5467 27.3855Z" fill="#F2BB4F"/>
<path d="M42.2254 27.3855C42.2252 27.6971 42.1326 28.0016 41.9593 28.2605C41.786 28.5194 41.5398 28.7212 41.2519 28.8403C40.964 28.9593 40.6472 28.9903 40.3417 28.9294C40.0361 28.8684 39.7555 28.7183 39.5353 28.4979C39.315 28.2775 39.1651 27.9967 39.1044 27.6911C39.0437 27.3855 39.075 27.0688 39.1943 26.7809C39.3136 26.4931 39.5155 26.2471 39.7746 26.074C40.0337 25.901 40.3383 25.8086 40.6498 25.8086C41.0678 25.8089 41.4686 25.9752 41.764 26.2709C42.0595 26.5666 42.2254 26.9675 42.2254 27.3855Z" fill="#F2BB4F"/>
<path d="M29.0978 57.207H25.6494V71.6165H29.0978V57.207Z" fill="white"/>
<path d="M35.8144 71.6152H39.2627V57.2058H35.8144V71.6152Z" fill="white"/>
</g>
<defs>
<clipPath id="clip0_78_16982">
<rect width="63.3623" height="63.3623" fill="white" transform="translate(0.213867 0.835938)"/>
</clipPath>
</defs>
</svg>
