<svg width="64" height="65" viewBox="0 0 64 65" fill="none" xmlns="http://www.w3.org/2000/svg">
<path d="M21.9428 7.39648H21.9415C18.8861 7.39648 16.4092 9.87341 16.4092 12.9288V34.3696C16.4092 37.4251 18.8861 39.902 21.9415 39.902H21.9428C24.9983 39.902 27.4752 37.4251 27.4752 34.3696V12.9288C27.4752 9.87341 24.9983 7.39648 21.9428 7.39648Z" fill="#EC6C9B"/>
<path d="M45.5898 14.3689C45.5898 9.19462 40.4411 5 34.0898 5C27.7386 5 22.5898 9.19462 22.5898 14.3689V31.6311C22.5898 36.8054 27.7386 41 34.0898 41C40.4411 41 45.5898 36.8054 45.5898 31.6311V14.3689Z" fill="#EC6C9B"/>
<path d="M15.5983 39.099C17.7701 39.099 19.5306 37.3384 19.5306 35.1667C19.5306 32.9949 17.7701 31.2344 15.5983 31.2344C13.4266 31.2344 11.666 32.9949 11.666 35.1667C11.666 37.3384 13.4266 39.099 15.5983 39.099Z" fill="white"/>
<path d="M48.4675 39.099C50.6392 39.099 52.3998 37.3384 52.3998 35.1667C52.3998 32.9949 50.6392 31.2344 48.4675 31.2344C46.2957 31.2344 44.5352 32.9949 44.5352 35.1667C44.5352 37.3384 46.2957 39.099 48.4675 39.099Z" fill="white"/>
<path d="M35.4306 44.8398H28.9395V56.7699H35.4306V44.8398Z" fill="white"/>
<path d="M29.564 51.4961H34.7508C35.68 51.4961 36.5711 51.8652 37.2281 52.5222C37.8852 53.1793 38.2543 54.0704 38.2543 54.9996V62.9487H26.0605V54.9996C26.0605 54.0704 26.4297 53.1793 27.0867 52.5222C27.7437 51.8652 28.6349 51.4961 29.564 51.4961Z" fill="#EC6C9B"/>
<path d="M38.2565 62.9512H26.0615V67.3942C26.0615 69.3296 28.5141 70.8977 30.4495 70.8977H33.8685C35.804 70.8977 38.2565 69.3296 38.2565 67.3942V62.9512Z" fill="#EC6C9B"/>
<path d="M32.0344 47.6394C40.7065 47.6394 47.7367 39.7421 47.7367 30.0004C47.7367 20.2586 40.7065 12.3613 32.0344 12.3613C23.3622 12.3613 16.332 20.2586 16.332 30.0004C16.332 39.7421 23.3622 47.6394 32.0344 47.6394Z" fill="white"/>
<path d="M31.4252 40.5684C29.1375 40.5684 26.8167 39.8962 24.4629 38.5517C24.3604 38.4755 24.2893 38.3645 24.2631 38.2394C24.2369 38.1144 24.2574 37.9841 24.3208 37.8732C24.3841 37.7623 24.486 37.6785 24.607 37.6376C24.728 37.5967 24.8598 37.6016 24.9774 37.6513C29.384 40.1736 33.5205 40.1761 37.6235 37.6603C37.682 37.6218 37.7476 37.5954 37.8164 37.5828C37.8853 37.5702 37.956 37.5715 38.0243 37.5867C38.0927 37.602 38.1573 37.6308 38.2142 37.6715C38.2712 37.7122 38.3194 37.7639 38.356 37.8236C38.3926 37.8833 38.4168 37.9497 38.4272 38.019C38.4375 38.0882 38.4339 38.1588 38.4164 38.2266C38.399 38.2944 38.3681 38.358 38.3255 38.4137C38.283 38.4693 38.2297 38.5158 38.1688 38.5504C35.9797 39.8932 33.7185 40.5684 31.4252 40.5684Z" fill="#EC6C9B"/>
<path d="M29.1493 56.1406H26.0605V73.388H29.1493V56.1406Z" fill="white"/>
<path d="M35.1632 73.3867H38.252V56.1394H35.1632V73.3867Z" fill="white"/>
<path d="M27.1118 21.5618L24.9165 22.3695C24.6605 22.463 24.3779 22.4514 24.1303 22.3373C23.8828 22.2231 23.6906 22.0156 23.5955 21.7602C23.5019 21.5032 23.5142 21.2195 23.6296 20.9716C23.7451 20.7236 23.9543 20.5317 24.2112 20.4379L26.4052 19.6289C26.6614 19.5354 26.9442 19.5472 27.1917 19.6616C27.4392 19.776 27.6314 19.9838 27.7262 20.2395C27.8199 20.4963 27.8078 20.7798 27.6926 21.0278C27.5774 21.2757 27.3685 21.4677 27.1118 21.5618Z" fill="#EC6C9B"/>
<path d="M37.2379 21.5615L39.4319 22.3692C39.6881 22.4628 39.9709 22.4513 40.2186 22.3371C40.4663 22.223 40.6589 22.0155 40.7542 21.7599C40.8473 21.5037 40.8354 21.2211 40.721 20.9737C40.6066 20.7262 40.3991 20.534 40.1436 20.4389L37.9496 19.6299C37.6931 19.5356 37.4096 19.5467 37.1613 19.6609C36.913 19.7751 36.72 19.9831 36.6247 20.2392C36.5314 20.4959 36.5434 20.7792 36.6583 21.027C36.7733 21.2748 36.9816 21.467 37.2379 21.5615Z" fill="#EC6C9B"/>
<path d="M29.6205 29.1785C29.5591 29.1787 29.4983 29.1667 29.4415 29.1433C29.3848 29.1199 29.3332 29.0855 29.2898 29.042C29.2464 28.9986 29.212 28.947 29.1885 28.8903C29.1651 28.8335 29.1532 28.7727 29.1533 28.7113C29.1533 27.7848 28.7853 26.8963 28.1302 26.2412C27.4751 25.5861 26.5865 25.218 25.6601 25.218C24.7336 25.218 23.8451 25.5861 23.19 26.2412C22.5349 26.8963 22.1668 27.7848 22.1668 28.7113C22.1606 28.8311 22.1085 28.944 22.0215 29.0266C21.9344 29.1092 21.819 29.1553 21.699 29.1553C21.579 29.1553 21.4635 29.1092 21.3765 29.0266C21.2894 28.944 21.2374 28.8311 21.2311 28.7113C21.2211 28.1234 21.3283 27.5394 21.5463 26.9934C21.7644 26.4474 22.089 25.9502 22.5012 25.531C22.9134 25.1117 23.4049 24.7787 23.9472 24.5514C24.4894 24.3241 25.0715 24.207 25.6594 24.207C26.2474 24.207 26.8295 24.3241 27.3717 24.5514C27.9139 24.7787 28.4055 25.1117 28.8177 25.531C29.2299 25.9502 29.5545 26.4474 29.7725 26.9934C29.9906 27.5394 30.0977 28.1234 30.0878 28.7113C30.0879 28.7727 30.076 28.8335 30.0525 28.8903C30.0291 28.947 29.9947 28.9986 29.9513 29.042C29.9079 29.0855 29.8563 29.1199 29.7995 29.1433C29.7428 29.1667 29.6819 29.1787 29.6205 29.1785Z" fill="#EC6C9B"/>
<path d="M41.8764 29.1785C41.815 29.1787 41.7542 29.1667 41.6974 29.1433C41.6406 29.1199 41.5891 29.0855 41.5456 29.042C41.5022 28.9986 41.4678 28.947 41.4444 28.8903C41.421 28.8335 41.409 28.7727 41.4092 28.7113C41.4092 28.2525 41.3188 27.7983 41.1433 27.3745C40.9677 26.9507 40.7104 26.5656 40.386 26.2412C40.0616 25.9168 39.6766 25.6595 39.2527 25.4839C38.8289 25.3084 38.3747 25.218 37.9159 25.218C37.4572 25.218 37.0029 25.3084 36.5791 25.4839C36.1553 25.6595 35.7702 25.9168 35.4458 26.2412C35.1215 26.5656 34.8641 26.9507 34.6886 27.3745C34.513 27.7983 34.4227 28.2525 34.4227 28.7113C34.4164 28.8311 34.3644 28.944 34.2773 29.0266C34.1903 29.1092 34.0748 29.1553 33.9548 29.1553C33.8348 29.1553 33.7194 29.1092 33.6323 29.0266C33.5453 28.944 33.4932 28.8311 33.487 28.7113C33.477 28.1234 33.5841 27.5394 33.8022 26.9934C34.0202 26.4474 34.3448 25.9502 34.757 25.531C35.1692 25.1117 35.6608 24.7787 36.203 24.5514C36.7453 24.3241 37.3273 24.207 37.9153 24.207C38.5032 24.207 39.0853 24.3241 39.6276 24.5514C40.1698 24.7787 40.6613 25.1117 41.0735 25.531C41.4857 25.9502 41.8103 26.4474 42.0284 26.9934C42.2465 27.5394 42.3536 28.1234 42.3436 28.7113C42.3438 28.7727 42.3318 28.8335 42.3084 28.8903C42.285 28.947 42.2506 28.9986 42.2071 29.042C42.1637 29.0855 42.1121 29.1199 42.0554 29.1433C41.9986 29.1667 41.9378 29.1787 41.8764 29.1785Z" fill="#EC6C9B"/>
</svg>
